<svg width="174" height="53" viewBox="0 0 174 53" fill="none" xmlns="http://www.w3.org/2000/svg">
<path d="M87.8223 15.9733H90.703V21.5012C89.9634 22.0592 89.1069 22.4874 88.1337 22.7859C87.1605 23.0843 86.1808 23.2336 85.1946 23.2336C83.7802 23.2336 82.5085 22.9351 81.3795 22.3382C80.2506 21.7283 79.3617 20.8913 78.7129 19.8273C78.077 18.7502 77.7591 17.537 77.7591 16.1874C77.7591 14.8379 78.077 13.6311 78.7129 12.567C79.3617 11.49 80.2571 10.653 81.399 10.0561C82.5409 9.44619 83.8256 9.14124 85.253 9.14124C86.4468 9.14124 87.5303 9.34238 88.5035 9.74464C89.4768 10.1469 90.2943 10.7308 90.9561 11.4965L88.9318 13.365C87.9585 12.3399 86.7842 11.8274 85.4087 11.8274C84.5393 11.8274 83.7672 12.009 83.0924 12.3724C82.4176 12.7357 81.8921 13.2483 81.5158 13.9101C81.1395 14.5719 80.9513 15.331 80.9513 16.1874C80.9513 17.0309 81.1395 17.7835 81.5158 18.4453C81.8921 19.1071 82.4111 19.6261 83.0729 20.0025C83.7477 20.3658 84.5133 20.5475 85.3698 20.5475C86.2781 20.5475 87.0956 20.3528 87.8223 19.9635V15.9733ZM103.598 20.4696V23H93.0482V9.37482H103.345V11.9052H96.182V14.8638H102.508V17.3164H96.182V20.4696H103.598ZM111.421 9.37482C112.628 9.37482 113.672 9.57595 114.555 9.97822C115.45 10.3805 116.138 10.9514 116.618 11.6911C117.098 12.4308 117.338 13.3067 117.338 14.3188C117.338 15.318 117.098 16.1939 116.618 16.9465C116.138 17.6862 115.45 18.2571 114.555 18.6594C113.672 19.0487 112.628 19.2433 111.421 19.2433H108.676V23H105.523V9.37482H111.421ZM111.246 16.674C112.193 16.674 112.913 16.4729 113.406 16.0706C113.899 15.6554 114.146 15.0714 114.146 14.3188C114.146 13.5532 113.899 12.9693 113.406 12.567C112.913 12.1518 112.193 11.9441 111.246 11.9441H108.676V16.674H111.246ZM123.52 16.3042H129.029V18.7373H123.52V16.3042Z" fill="#527938"/>
<path d="M83.0924 47.2336C82.0154 47.2336 80.9708 47.0908 79.9586 46.8054C78.9594 46.5069 78.1549 46.1241 77.545 45.6569L78.6156 43.2823C79.1995 43.7105 79.8937 44.0544 80.6983 44.3139C81.5028 44.5734 82.3073 44.7032 83.1119 44.7032C84.0072 44.7032 84.669 44.5734 85.0973 44.3139C85.5255 44.0414 85.7396 43.6845 85.7396 43.2433C85.7396 42.9189 85.6098 42.6529 85.3503 42.4453C85.1037 42.2247 84.7793 42.0495 84.3771 41.9198C83.9878 41.79 83.4557 41.6472 82.781 41.4915C81.7429 41.245 80.8929 40.9984 80.2311 40.7519C79.5693 40.5053 78.9984 40.1096 78.5182 39.5645C78.0511 39.0195 77.8175 38.2929 77.8175 37.3845C77.8175 36.593 78.0316 35.8793 78.4598 35.2434C78.8881 34.5946 79.5304 34.082 80.3868 33.7057C81.2562 33.3294 82.3138 33.1412 83.5596 33.1412C84.429 33.1412 85.2789 33.2451 86.1094 33.4527C86.9399 33.6603 87.6666 33.9588 88.2894 34.348L87.3162 36.7422C86.0575 36.0285 84.7988 35.6716 83.5401 35.6716C82.6577 35.6716 82.0024 35.8144 81.5742 36.0999C81.1589 36.3853 80.9513 36.7616 80.9513 37.2288C80.9513 37.6959 81.1914 38.0463 81.6715 38.2799C82.1646 38.5005 82.9107 38.7211 83.9099 38.9417C84.948 39.1882 85.798 39.4348 86.4598 39.6813C87.1216 39.9279 87.686 40.3172 88.1532 40.8492C88.6333 41.3812 88.8734 42.1014 88.8734 43.0098C88.8734 43.7883 88.6528 44.502 88.2116 45.1509C87.7834 45.7867 87.1345 46.2928 86.2651 46.6691C85.3957 47.0454 84.3381 47.2336 83.0924 47.2336ZM96.9647 47.2336C95.5762 47.2336 94.3175 46.9351 93.1886 46.3382C92.0726 45.7283 91.1902 44.8913 90.5414 43.8273C89.9056 42.7502 89.5876 41.537 89.5876 40.1874C89.5876 38.8379 89.9056 37.6311 90.5414 36.567C91.1902 35.49 92.0726 34.653 93.1886 34.0561C94.3175 33.4462 95.5827 33.1412 96.9842 33.1412C98.165 33.1412 99.2291 33.3489 100.176 33.7641C101.137 34.1794 101.941 34.7763 102.59 35.5548L100.566 37.4234C99.6443 36.3594 98.5024 35.8274 97.1399 35.8274C96.2964 35.8274 95.5438 36.0155 94.882 36.3918C94.2202 36.7552 93.7011 37.2677 93.3248 37.9295C92.9615 38.5913 92.7798 39.3439 92.7798 40.1874C92.7798 41.0309 92.9615 41.7835 93.3248 42.4453C93.7011 43.1071 94.2202 43.6261 94.882 44.0025C95.5438 44.3658 96.2964 44.5475 97.1399 44.5475C98.5024 44.5475 99.6443 44.0089 100.566 42.9319L102.59 44.8005C101.941 45.5921 101.137 46.1955 100.176 46.6107C99.2161 47.026 98.1455 47.2336 96.9647 47.2336ZM112.842 44.0803H106.516L105.31 47H102.079L108.151 33.3748H111.266L117.358 47H114.049L112.842 44.0803ZM111.85 41.6862L109.689 36.4697L107.529 41.6862H111.85ZM118.188 33.3748H124.378C125.857 33.3748 127.161 33.6603 128.29 34.2313C129.432 34.7892 130.314 35.5808 130.937 36.6059C131.573 37.6311 131.891 38.8249 131.891 40.1874C131.891 41.5499 131.573 42.7438 130.937 43.7689C130.314 44.794 129.432 45.5921 128.29 46.163C127.161 46.721 125.857 47 124.378 47H118.188V33.3748ZM124.222 44.4112C125.584 44.4112 126.668 44.0349 127.472 43.2823C128.29 42.5167 128.699 41.485 128.699 40.1874C128.699 38.8898 128.29 37.8646 127.472 37.112C126.668 36.3464 125.584 35.9636 124.222 35.9636H121.341V44.4112H124.222ZM142.468 44.0803H136.142L134.935 47H131.704L137.777 33.3748H140.891L146.984 47H143.675L142.468 44.0803ZM141.475 41.6862L139.315 36.4697L137.154 41.6862H141.475Z" fill="#82B23A"/>
<path fill-rule="evenodd" clip-rule="evenodd" d="M57.362 11.0923C52.5639 4.71877 44.9729 0.565216 36.3794 0.565216C32.011 0.565216 27.8574 1.63941 24.2768 3.50135V13.4555H13.8213C11.5297 17.3226 10.2406 21.9059 10.2406 26.7039C10.2406 30.7143 11.1 34.4381 12.6755 37.8039L5.58581 44.8936L62.7329 10.1613L57.362 11.0923ZM0 1.20973H4.15355V5.36329H0V1.20973ZM12.389 1.5678H22.2V11.3788H12.389V1.5678V1.5678ZM2.93613 7.58328H9.95419V14.6014H2.93613V7.58328ZM26.7116 10.5194H32.2258V16.0336H26.7116V10.5194Z" fill="#527938"/>
<path fill-rule="evenodd" clip-rule="evenodd" d="M29.2897 41.6711L20.3381 38.3052L14.8239 41.7427C16.5426 44.1775 18.6194 46.3259 21.0542 48.0446C23.9903 45.753 26.7116 43.6762 29.2897 41.6711ZM58.651 33.5072C59.582 33.722 60.5129 34.0085 61.5155 34.2233C61.9452 32.791 62.2316 31.2872 62.4465 29.7833C61.2291 30.9291 59.94 32.2181 58.651 33.5072ZM47.3361 45.2517C49.0549 45.8962 50.9168 46.5407 52.7787 47.1852C56.3594 44.3207 59.2239 40.4536 60.9426 36.0852C59.6536 35.7272 58.3645 35.4407 57.1471 35.0827C54.1394 38.0904 50.9168 41.4562 47.3361 45.2517ZM44.9729 47.7582C43.6123 49.3336 42.1084 50.9091 40.6045 52.6278C43.7555 52.1265 46.6916 51.0523 49.4129 49.4769C47.9091 48.904 46.4052 48.3311 44.9729 47.7582ZM42.6097 46.8272C40.7478 48.7607 38.8142 50.7659 36.809 52.9859C36.6658 52.9859 36.5226 52.9859 36.3794 52.9859C31.4381 52.9859 26.7832 51.6252 22.8445 49.1904C25.7807 46.7556 28.5736 44.5356 31.1516 42.3872C34.6607 43.7478 38.4562 45.2517 42.6097 46.8272ZM54.9271 34.5814C51.9194 37.5175 48.6252 40.7401 44.9729 44.3923C40.9626 42.9601 37.2387 41.5994 33.7297 40.382C37.74 37.231 41.3207 34.4381 44.6149 31.9317C47.8374 32.7194 51.2032 33.5788 54.9271 34.5814ZM62.5897 26.0594C62.5897 26.2743 62.5897 26.5607 62.5897 26.7756C62.5897 26.9904 62.5897 27.1336 62.5897 27.3485C60.7278 29.0672 58.7226 31.0007 56.5742 33.0059C52.9936 32.1465 49.6278 31.2872 46.4768 30.571C49.3413 28.4227 51.991 26.4175 54.4258 24.6272C56.9323 24.9852 59.6536 25.4865 62.5897 26.0594ZM61.5155 19.2562C59.7252 20.6169 57.7916 21.9775 55.7865 23.553C57.9349 23.911 60.2265 24.3407 62.5897 24.6988C62.3749 22.8368 62.0168 20.9749 61.5155 19.2562ZM54.1394 17.1794C56.3594 17.4659 58.651 17.7523 61.0858 18.0388C60.5845 16.6065 59.94 15.2459 59.2239 13.9568L54.1394 17.1794ZM46.5484 21.9775L53.0652 17.8956C55.3568 18.182 57.7916 18.5401 60.3697 18.8265C58.4362 20.1872 56.431 21.6194 54.2826 23.1949C51.4897 22.7652 48.9833 22.3356 46.5484 21.9775ZM36.5942 28.1362L44.7581 30.0697C47.6226 27.9214 50.3439 25.9878 52.7787 24.1975C50.0574 23.6962 47.4794 23.2665 45.0445 22.8369L36.5942 28.1362ZM23.0594 36.5865L34.5891 29.3536C37.1671 29.9981 39.96 30.7143 42.8961 31.4304C39.5303 33.8652 35.9497 36.5865 31.8678 39.6659L23.0594 36.5865Z" fill="#82B23A"/>
</svg>
