<svg xmlns="http://www.w3.org/2000/svg" xmlns:xlink="http://www.w3.org/1999/xlink" width="28" height="28" viewBox="0 0 28 28">
  <defs>
    <style>
      .cls-1 {
        fill: #0390d4;
        fill-rule: evenodd;
        filter: url(#filter);
      }
    </style>
    <filter id="filter" x="435" y="392" width="28" height="28" filterUnits="userSpaceOnUse">
      <feFlood result="flood" flood-color="#5b873e"/>
      <feComposite result="composite" operator="in" in2="SourceGraphic"/>
      <feBlend result="blend" in2="SourceGraphic"/>
    </filter>
  </defs>
  <path id="Vector" class="cls-1" d="M443.772,420.008h-4.254A4.524,4.524,0,0,1,435,415.489v-4.332a4.524,4.524,0,0,1,4.519-4.519h4.254a4.525,4.525,0,0,1,4.519,4.519v4.332A4.524,4.524,0,0,1,443.772,420.008Zm-4.254-10.963a2.115,2.115,0,0,0-2.112,2.112v4.332a2.114,2.114,0,0,0,2.112,2.112h4.254a2.114,2.114,0,0,0,2.112-2.112v-4.332a2.114,2.114,0,0,0-2.112-2.112h-4.254Zm4.254-3.675h-4.254A4.525,4.525,0,0,1,435,400.85v-4.331A4.524,4.524,0,0,1,439.518,392h4.254a4.524,4.524,0,0,1,4.519,4.519v4.331A4.525,4.525,0,0,1,443.772,405.37Zm-4.254-10.964a2.115,2.115,0,0,0-2.112,2.113v4.331a2.115,2.115,0,0,0,2.112,2.113h4.254a2.115,2.115,0,0,0,2.112-2.113v-4.331a2.115,2.115,0,0,0-2.112-2.113h-4.254Zm19.876,24.4a1.2,1.2,0,0,0-1.2-1.2h-3.56a2.527,2.527,0,0,1-2.511-2.537v-3.482a2.527,2.527,0,0,1,2.511-2.537h3.456a2.527,2.527,0,0,1,2.512,2.537v3.586a1.2,1.2,0,1,0,2.406,0v-3.586a4.937,4.937,0,0,0-4.918-4.944h-3.456a4.936,4.936,0,0,0-4.917,4.944v3.482a4.936,4.936,0,0,0,4.917,4.944h3.56A1.2,1.2,0,0,0,459.394,418.805Zm-0.908-13.435h-4.254a4.524,4.524,0,0,1-4.518-4.52v-4.331A4.524,4.524,0,0,1,454.232,392h4.254a4.524,4.524,0,0,1,4.519,4.519v4.331A4.525,4.525,0,0,1,458.486,405.37Zm-4.254-10.964a2.115,2.115,0,0,0-2.112,2.113v4.331a2.115,2.115,0,0,0,2.112,2.113h4.254a2.116,2.116,0,0,0,2.113-2.113v-4.331a2.116,2.116,0,0,0-2.113-2.113h-4.254Z" transform="translate(-435 -392)"/>
</svg>
