<svg xmlns="http://www.w3.org/2000/svg" width="29" height="23" viewBox="0 0 29 23">
  <defs>
    <style>
      .cls-1 {
        fill: #74AF4D;
        fill-rule: evenodd;
      }
    </style>
  </defs>
  <path id="Vector" class="cls-1" d="M690.269,395h-15.54A6.693,6.693,0,0,0,668,401.64v9.721A6.693,6.693,0,0,0,674.729,418h15.54a1.228,1.228,0,1,0,0-2.456h-15.54a4.217,4.217,0,0,1-4.241-4.182V401.64a4.217,4.217,0,0,1,4.241-4.182h15.54a4.216,4.216,0,0,1,4.24,4.182v1.117a1.316,1.316,0,0,0-.18-0.012h-6.064a3.359,3.359,0,0,0-2.672,1.426,5.167,5.167,0,0,0,0,5.926,3.359,3.359,0,0,0,2.672,1.426h6.064a1.283,1.283,0,0,0,.177-0.012,4.088,4.088,0,0,1-.278,1.353,1.222,1.222,0,0,0,.715,1.587,1.252,1.252,0,0,0,1.611-.7,6.521,6.521,0,0,0,.449-2.386V401.64A6.694,6.694,0,0,0,690.269,395h0Zm-2,14.065c-0.526,0-1.113-.827-1.113-1.933s0.587-1.934,1.113-1.934h6.064a1.173,1.173,0,0,0,.18-0.013v3.893a1.314,1.314,0,0,0-.18-0.013h-6.064Z" transform="translate(-668 -395)"/>
</svg>
