<svg width="28" height="28" viewBox="0 0 28 28" fill="none" xmlns="http://www.w3.org/2000/svg">
<path d="M4.15625 24.7188H10.7188C10.7188 26.528 12.1907 28 14 28C15.8093 28 17.2812 26.528 17.2812 24.7188H23.8438C24.2968 24.7188 24.6641 24.3515 24.6641 23.8984C24.6641 20.7425 23.6987 19.5198 22.847 18.4409C22.0613 17.4457 21.3828 16.5863 21.3828 14V10.6641C21.3828 7.35022 19.1881 4.53955 16.176 3.60866C16.3576 3.26572 16.4609 2.87525 16.4609 2.46094C16.4609 1.10398 15.357 0 14 0C12.643 0 11.5391 1.10398 11.5391 2.46094C11.5391 2.87525 11.6424 3.26572 11.824 3.60866C8.81185 4.53955 6.61719 7.35022 6.61719 10.6641V14C6.61719 16.5863 5.93868 17.4457 5.15304 18.4409C4.30128 19.5198 3.33594 20.7425 3.33594 23.8984C3.33594 24.3515 3.70322 24.7188 4.15625 24.7188V24.7188ZM14 26.3594C13.0954 26.3594 12.3594 25.6234 12.3594 24.7182H15.6406C15.6406 25.6234 14.9046 26.3594 14 26.3594ZM13.1797 2.46094C13.1797 2.00862 13.5477 1.64062 14 1.64062C14.4523 1.64062 14.8203 2.00862 14.8203 2.46094C14.8203 2.91326 14.4523 3.28125 14 3.28125C13.5477 3.28125 13.1797 2.91326 13.1797 2.46094ZM6.44071 19.4575C7.29247 18.3787 8.25781 17.1559 8.25781 14V10.6641C8.25781 7.49782 10.8338 4.92188 14 4.92188C17.1662 4.92188 19.7422 7.49782 19.7422 10.6641V14C19.7422 17.1559 20.7075 18.3787 21.5593 19.4575C22.2554 20.3392 22.8673 21.1144 22.9978 23.0781H5.00221C5.13275 21.1144 5.7447 20.3392 6.44071 19.4575Z" fill="#5B873E"/>
<path d="M4.97656 10.6641C4.97656 7.45844 6.70584 4.46462 9.48948 2.8509C9.88149 2.62368 10.015 2.12176 9.78781 1.72981C9.56063 1.33787 9.05855 1.20437 8.66671 1.43155C5.39798 3.32641 3.33594 6.82253 3.33594 10.6641C3.33594 11.1171 3.70322 11.4844 4.15625 11.4844C4.60928 11.4844 4.97656 11.1171 4.97656 10.6641Z" fill="#5B873E"/>
<path d="M19.3332 1.43157C18.9412 1.20434 18.4393 1.33789 18.2121 1.72984C17.9849 2.12178 18.1184 2.6237 18.5104 2.85093C21.2941 4.46465 23.0234 7.45846 23.0234 10.6641C23.0234 11.1171 23.3906 11.4844 23.8437 11.4844C24.2967 11.4844 24.664 11.1171 24.664 10.6641C24.664 6.82523 22.6042 3.32775 19.3332 1.43157V1.43157Z" fill="#5B873E"/>
</svg>
