<svg width="26" height="26" viewBox="0 0 26 26" fill="none" xmlns="http://www.w3.org/2000/svg">
<path d="M22.5424 6.49019L22.5423 6.49023C22.2502 6.66761 22.1572 7.04815 22.3346 7.34027C23.3668 9.04017 23.9125 10.9972 23.9125 13C23.9125 16.0789 22.6534 18.9396 20.426 20.9994C19.5958 17.6463 16.5704 15.1938 13 15.1938C9.4296 15.1938 6.4039 17.6466 5.57435 20.9998C3.34675 18.9397 2.0875 16.0789 2.0875 13C2.0875 6.98295 6.98295 2.0875 13 2.0875C15.4507 2.0875 17.764 2.87875 19.6915 4.37608C19.9614 4.58573 20.3501 4.53683 20.5598 4.26701C20.7694 3.99716 20.7206 3.6084 20.4507 3.39877C18.3043 1.73144 15.7273 0.85 13 0.85C9.75234 0.85 6.70001 2.11339 4.4066 4.40694C2.11325 6.70039 0.85 9.75262 0.85 13C0.85 19.7123 6.28238 25.15 13 25.15C19.7349 25.15 25.15 19.6953 25.15 13C25.15 10.7711 24.5423 8.59183 23.3924 6.69799L23.2642 6.77584L23.3924 6.69799C23.215 6.40591 22.8346 6.31297 22.5424 6.49019ZM8.63125 10.1875C8.63125 12.5966 10.5909 14.5562 13 14.5562C15.4091 14.5562 17.3687 12.5966 17.3687 10.1875C17.3687 7.77844 15.4091 5.81875 13 5.81875C10.5909 5.81875 8.63125 7.77844 8.63125 10.1875ZM16.1313 10.1875C16.1313 11.9139 14.7264 13.3188 13 13.3188C11.2736 13.3188 9.86875 11.9139 9.86875 10.1875C9.86875 8.46106 11.2736 7.05625 13 7.05625C14.7264 7.05625 16.1313 8.46106 16.1313 10.1875ZM21.625 5.93125C21.9667 5.93125 22.2437 5.65423 22.2437 5.3125C22.2437 4.97077 21.9667 4.69375 21.625 4.69375C21.2833 4.69375 21.0063 4.97077 21.0063 5.3125C21.0063 5.65423 21.2833 5.93125 21.625 5.93125ZM13 16.4312C16.2086 16.4312 18.8759 18.7524 19.3414 21.8848C17.4864 23.2125 15.3021 23.9125 13 23.9125C10.6982 23.9125 8.51409 23.2124 6.65912 21.8847C7.12396 18.7523 9.79103 16.4312 13 16.4312Z" fill="#5B873E" stroke="#5B873E" stroke-width="0.3"/>
</svg>
