<svg width="28" height="28" viewBox="0 0 28 28" fill="none" xmlns="http://www.w3.org/2000/svg">
<path d="M24.3181 6.91569L24.3182 6.91564C24.6523 6.71292 25.0876 6.81923 25.2905 7.15336C26.5398 9.21093 27.2 11.5785 27.2 14C27.2 21.2739 21.3169 27.2 14 27.2C6.70186 27.2 0.8 21.2923 0.8 14C0.8 10.4721 2.17246 7.15595 4.66397 4.66433L24.3181 6.91569ZM24.3181 6.91569C23.9839 7.11861 23.8775 7.55391 24.0805 7.88807M24.3181 6.91569L24.0805 7.88807M24.0805 7.88807C25.195 9.72374 25.7844 11.8372 25.7844 14C25.7844 17.3036 24.4422 20.3743 22.0658 22.5954C21.1406 18.978 17.8636 16.3391 14 16.3391C10.1364 16.3391 6.85904 18.9783 5.93464 22.5958C3.55797 20.3745 2.21563 17.3036 2.21563 14C2.21563 7.50224 7.50224 2.21563 14 2.21563C16.6466 2.21563 19.1446 3.07007 21.2262 4.68704C21.5349 4.92687 21.9796 4.87092 22.2194 4.56227C22.4592 4.25358 22.4033 3.80886 22.0946 3.56905C19.7627 1.75765 16.9629 0.8 14 0.8C10.4718 0.8 7.15554 2.17261 4.66397 4.66433L24.0805 7.88807ZM9.22969 10.9531C9.22969 13.5837 11.3695 15.7234 14 15.7234C16.6305 15.7234 18.7703 13.5837 18.7703 10.9531C18.7703 8.3226 16.6305 6.18281 14 6.18281C11.3695 6.18281 9.22969 8.3226 9.22969 10.9531ZM17.3547 10.9531C17.3547 12.8027 15.8496 14.3078 14 14.3078C12.1504 14.3078 10.6453 12.8027 10.6453 10.9531C10.6453 9.10353 12.1504 7.59844 14 7.59844C15.8496 7.59844 17.3547 9.10353 17.3547 10.9531ZM23.3438 6.37969C23.7347 6.37969 24.0516 6.06279 24.0516 5.67188C24.0516 5.28096 23.7347 4.96406 23.3438 4.96406C22.9528 4.96406 22.6359 5.28096 22.6359 5.67188C22.6359 6.06279 22.9528 6.37969 23.3438 6.37969ZM14 17.7547C17.4496 17.7547 20.3184 20.2444 20.8293 23.6081C18.8302 25.0332 16.4784 25.7844 14 25.7844C11.5218 25.7844 9.17033 25.0331 7.17121 23.6079C7.68154 20.2444 10.55 17.7547 14 17.7547Z" fill="#5B873E" stroke="#5B873E" stroke-width="0.4"/>
</svg>
