<svg xmlns="http://www.w3.org/2000/svg" version="1.1" xmlns:xlink="http://www.w3.org/1999/xlink" xmlns:svgjs="http://svgjs.com/svgjs" width="512" height="512" x="0" y="0" viewBox="0 0 512 512" style="enable-background:new 0 0 512 512" xml:space="preserve" class=""><g><g><path d="m416 31.02v480.98h-416v-408.65l81.21-22.14 22.14-81.21h265.78z" fill="#fff5f5" data-original="#fff5f5" class=""></path><path d="m416 31.02v480.98h-147.78v-512h100.91z" fill="#e6ecf2" data-original="#e6ecf2"></path><path d="m103.349 0-103.349 103.349h103.349z" fill="#c2cad9" data-original="#c2cad9"></path><path d="m512 83.85v23l-85.75 96-10.25 4.753-10.25-4.753-85.75-96v-23h49.13v-83.85h93.74v83.85z" fill="#3373ff" data-original="#3373ff" class=""></path><path d="m512 83.85v23l-85.75 96-10.25 4.753v-207.603h46.87v83.85z" fill="#2456c9" data-original="#2456c9" class=""></path><path d="m60.255 202.85h416.01v240.99h-416.01z" fill="#f73663" data-original="#f73663" class=""></path><path d="m268.225 202.85h208.04v240.99h-208.04z" fill="#ba2362" data-original="#ba2362"></path><path d="m145.635 391.562h-30v-136.437h45.126c24.882 0 45.125 20.243 45.125 45.125-.001 24.882-20.244 45.125-45.125 45.125h-15.126zm0-76.187h15.126c8.34 0 15.124-6.785 15.125-15.125 0-8.339-6.785-15.125-15.125-15.125h-15.126z" fill="#fff5f5" data-original="#fff5f5" class=""></path><path d="m268.255 255.12h-45.12v136.44h45.12c24.89 0 45.13-20.24 45.13-45.12v-46.19c0-24.88-20.24-45.13-45.13-45.13zm15.13 91.32c0 8.34-6.79 15.12-15.13 15.12h-15.12v-76.44h15.12c8.34 0 15.13 6.79 15.13 15.13z" fill="#fff5f5" data-original="#fff5f5" class=""></path><g fill="#e6ecf2"><path d="m313.385 300.25v46.19c0 24.88-20.24 45.12-45.13 45.12h-.03v-30h.03c8.34 0 15.13-6.78 15.13-15.12v-46.19c0-8.34-6.79-15.13-15.13-15.13h-.03v-30h.03c24.89 0 45.13 20.25 45.13 45.13z" fill="#e6ecf2" data-original="#e6ecf2"></path><path d="m420.886 285.125v-30h-90.251v136.437h30v-46.187h45.25v-30h-45.25v-30.25z" fill="#e6ecf2" data-original="#e6ecf2"></path></g></g></g></svg>