<svg width="28" height="28" viewBox="0 0 28 28" fill="none" xmlns="http://www.w3.org/2000/svg">
<path d="M26.0001 12.6667H24.5734C24.2758 10.32 23.2066 8.13876 21.534 6.4661C19.8613 4.79345 17.6801 3.72425 15.3334 3.42666V1.99999C15.3334 1.64637 15.1929 1.30723 14.9429 1.05718C14.6928 0.807132 14.3537 0.666656 14.0001 0.666656C13.6465 0.666656 13.3073 0.807132 13.0573 1.05718C12.8072 1.30723 12.6667 1.64637 12.6667 1.99999V3.42666C10.3201 3.72425 8.13885 4.79345 6.4662 6.4661C4.79354 8.13876 3.72434 10.32 3.42675 12.6667H2.00008C1.64646 12.6667 1.30732 12.8071 1.05727 13.0572C0.807224 13.3072 0.666748 13.6464 0.666748 14C0.666748 14.3536 0.807224 14.6928 1.05727 14.9428C1.30732 15.1928 1.64646 15.3333 2.00008 15.3333H3.42675C3.72434 17.68 4.79354 19.8612 6.4662 21.5339C8.13885 23.2065 10.3201 24.2757 12.6667 24.5733V26C12.6667 26.3536 12.8072 26.6928 13.0573 26.9428C13.3073 27.1928 13.6465 27.3333 14.0001 27.3333C14.3537 27.3333 14.6928 27.1928 14.9429 26.9428C15.1929 26.6928 15.3334 26.3536 15.3334 26V24.5733C17.6801 24.2757 19.8613 23.2065 21.534 21.5339C23.2066 19.8612 24.2758 17.68 24.5734 15.3333H26.0001C26.3537 15.3333 26.6928 15.1928 26.9429 14.9428C27.1929 14.6928 27.3334 14.3536 27.3334 14C27.3334 13.6464 27.1929 13.3072 26.9429 13.0572C26.6928 12.8071 26.3537 12.6667 26.0001 12.6667ZM14.0001 22C12.4178 22 10.8711 21.5308 9.55552 20.6517C8.23993 19.7727 7.21455 18.5233 6.60905 17.0615C6.00354 15.5996 5.84512 13.9911 6.1538 12.4393C6.46248 10.8874 7.22441 9.46196 8.34323 8.34314C9.46205 7.22432 10.8875 6.46239 12.4394 6.15371C13.9912 5.84503 15.5997 6.00345 17.0615 6.60895C18.5234 7.21445 19.7728 8.23983 20.6518 9.55543C21.5309 10.871 22.0001 12.4177 22.0001 14C22.0001 16.1217 21.1572 18.1566 19.6569 19.6568C18.1566 21.1571 16.1218 22 14.0001 22ZM14.0001 9.99999C13.209 9.99999 12.4356 10.2346 11.7778 10.6741C11.12 11.1136 10.6073 11.7384 10.3046 12.4693C10.0018 13.2002 9.9226 14.0044 10.0769 14.7804C10.2313 15.5563 10.6122 16.269 11.1717 16.8284C11.7311 17.3878 12.4438 17.7688 13.2197 17.9231C13.9956 18.0775 14.7999 17.9983 15.5308 17.6955C16.2617 17.3928 16.8864 16.8801 17.326 16.2223C17.7655 15.5645 18.0001 14.7911 18.0001 14C18.0001 12.9391 17.5787 11.9217 16.8285 11.1716C16.0784 10.4214 15.0609 9.99999 14.0001 9.99999ZM14.0001 15.3333C13.7364 15.3333 13.4786 15.2551 13.2593 15.1086C13.0401 14.9621 12.8692 14.7539 12.7682 14.5102C12.6673 14.2666 12.6409 13.9985 12.6924 13.7399C12.7438 13.4812 12.8708 13.2437 13.0573 13.0572C13.2437 12.8707 13.4813 12.7437 13.74 12.6923C13.9986 12.6408 14.2667 12.6672 14.5103 12.7682C14.754 12.8691 14.9622 13.04 15.1087 13.2592C15.2552 13.4785 15.3334 13.7363 15.3334 14C15.3334 14.3536 15.1929 14.6928 14.9429 14.9428C14.6928 15.1928 14.3537 15.3333 14.0001 15.3333Z" fill="#313131"/>
</svg>
